<svg width="916" height="849" viewBox="0 0 916 849" fill="none" xmlns="http://www.w3.org/2000/svg">
<g clip-path="url(#clip0)">
<path d="M453.12 848.79C575.241 848.79 674.24 841.219 674.24 831.88C674.24 822.541 575.241 814.97 453.12 814.97C330.999 814.97 232 822.541 232 831.88C232 841.219 330.999 848.79 453.12 848.79Z" fill="#F2A7A7"/>
<path d="M318.337 124.595C342.281 99.4925 379.952 94.376 414.231 96.399C521.88 102.677 619.064 163.722 703.109 232.768C733.534 257.771 763.495 284.705 783.253 319.124C823.464 389.196 811.531 486.274 755.616 543.999C736.592 563.64 713.536 578.699 689.862 592.08C647.766 615.813 602.341 634.864 554.568 640.28C520.498 644.153 486.002 641.005 452.132 635.608C357.513 620.476 264.624 587.191 186.766 530.11C152.618 505.099 120.432 474.009 106.359 433.539C92.2862 393.069 101.292 341.804 136.159 317.854C150.579 307.947 167.827 303.475 184.704 299.275C209.552 293.088 234.802 286.991 257.225 274.427C280.397 261.436 307.802 236.325 303.221 207.594C298.301 176.758 294.393 149.669 318.337 124.595Z" fill="url(#paint0_linear)"/>
<path d="M417.15 465.17C417.239 464.564 417.163 463.946 416.93 463.38C417 464.82 417.08 465.48 417.15 465.17Z" fill="url(#paint1_linear)"/>
<path d="M430.94 742.17C430.263 744.122 429.757 746.13 429.43 748.17C427.43 759.01 427.02 776.17 427.02 776.17C427.02 776.17 429.02 785.08 428.4 786.57C427.829 788.938 427.458 791.35 427.29 793.78C427.12 795.34 427.02 796.53 427.02 796.53L407.6 795.26C407.6 795.26 407.6 794.11 407.66 792.35C407.79 788.43 408.2 781.53 409.51 777.87C410.82 774.21 409.39 758.23 408.38 748.97C407.95 744.97 407.6 742.23 407.6 742.23C407.6 742.23 434.21 733.65 430.94 742.17Z" fill="#FBBEBE"/>
<path d="M506.73 747.39L504.34 770.62C504.34 770.62 504.97 778.04 504.34 781.22C503.98 783.03 503.61 786.89 503.34 789.89C503.16 792.16 503.04 793.95 503.04 793.95C503.04 793.95 488.19 804.35 484.8 795.22C484.396 794.114 484.114 792.967 483.96 791.8C482.54 782.27 486.7 768.28 486.7 768.28V738.39L507.28 741.75L506.73 747.39Z" fill="#FBBEBE"/>
<path opacity="0.1" d="M430.94 742.17C430.263 744.122 429.757 746.13 429.43 748.17C422.762 750.99 415.291 751.271 408.43 748.96C408 744.96 407.65 742.22 407.65 742.22C407.65 742.22 434.21 733.65 430.94 742.17Z" fill="black"/>
<path opacity="0.1" d="M507.31 741.74L506.73 747.37C499.53 750.67 491.84 748.65 486.73 746.37V738.37L507.31 741.74Z" fill="black"/>
<path d="M424.44 480.6C424.44 480.6 422.75 493.12 420.84 495.67C418.93 498.22 419.78 501.82 417.84 502.24C415.9 502.66 415.29 512 415.29 512L413.67 532.58C413.67 532.58 413.24 536.82 410.91 537.88C408.58 538.94 410.91 544.67 410.91 544.67C410.91 544.67 408.41 549.55 409.91 552.31C411.41 555.07 406.91 567.79 406.91 567.79C406.91 567.79 405 592.4 406.91 595.79C408.635 599.155 409.655 602.837 409.91 606.61C409.91 608.73 410.97 648.4 410.97 648.4C410.97 648.4 408.42 664.53 407.57 667.5C406.72 670.47 409.91 677.04 407.79 680.44C405.67 683.84 406.09 691.44 406.09 691.44C406.09 691.44 402.81 721.39 404.72 732.39C406.63 743.39 404.11 745.75 404.11 745.75C408.757 748.201 413.972 749.375 419.222 749.152C424.471 748.929 429.567 747.317 433.99 744.48C433.99 744.48 433.99 722.84 436.54 719.02C439.09 715.2 438.67 704.39 438.67 704.39C438.67 704.39 439.3 694.84 441.21 692.93C443.12 691.02 442.67 682.56 442.67 682.56C442.67 682.56 444.36 677.04 446.27 672.56C448.18 668.08 449.27 655.56 449.27 655.56C449.933 653.359 450.946 651.279 452.27 649.4C454.4 646.4 452.27 639.86 452.27 639.86C452.27 639.86 449.94 635.61 451.43 631.37C452.92 627.13 461.18 592.76 461.18 592.76L464.37 580.46L469.03 596.16C469.03 596.16 468.4 607.4 469.03 610.58C469.66 613.76 474.12 620.58 474.12 620.58V653.89C474.12 653.89 474.55 676.38 476.25 679.98C477.95 683.58 478.79 696.98 478.79 696.98C478.79 696.98 484.52 736.23 480.91 741.98C480.91 741.98 497.25 753.64 510.19 744.1C510.19 744.1 507.43 736.25 510.19 733.49C512.95 730.73 514.85 696.15 514.85 696.15C514.85 696.15 516.55 682.36 516.34 679.15C516.13 675.94 514.01 660.91 515.28 657.73C516.55 654.55 518.28 594.73 518.28 594.73L520.4 568.22V546.52C520.408 534.774 518.793 523.084 515.6 511.78C512.01 499.13 507.04 484.62 502.86 483.71C502.79 483.71 436.96 491 424.44 480.6Z" fill="#36435E"/>
<path opacity="0.1" d="M427.29 793.72C427.12 795.28 427.02 796.47 427.02 796.47L407.6 795.2C407.6 795.2 407.6 794.05 407.66 792.29C416.77 784.21 425.85 793.72 425.85 793.72H427.29Z" fill="black"/>
<path d="M428.5 794.39V806.17C428.5 806.17 424.5 814.17 423.09 815.82C422.32 816.76 421.88 820.37 421.64 823.38C421.45 825.78 421.39 827.8 421.39 827.8C421.39 827.8 423.94 837.99 404 837.56C384.06 837.13 392.12 822.39 392.12 822.39L392.23 822.2C393.23 820.34 401.3 805.9 402.23 805.1C403.16 804.3 403.93 798.99 403.93 798.99L407.64 792.99C416.77 784.83 425.89 794.37 425.89 794.37L428.5 794.39Z" fill="#36435E"/>
<path opacity="0.1" d="M421.39 827.76C421.39 827.76 423.94 837.95 404 837.52C384.06 837.09 392.12 822.39 392.12 822.39L392.23 822.2C392.78 825.2 395.13 828.31 402.62 827.91C412.77 827.38 418.96 824.79 421.62 823.38C421.45 825.74 421.39 827.76 421.39 827.76Z" fill="black"/>
<path opacity="0.1" d="M503.37 789.87C503.19 792.14 503.07 793.93 503.07 793.93C503.07 793.93 488.22 804.33 484.83 795.2C484.426 794.094 484.144 792.947 483.99 791.78C484.286 791.559 484.567 791.319 484.83 791.06C487.26 787.46 500.2 787.35 500.83 789.06C501.22 790.04 502.45 790.04 503.37 789.87Z" fill="black"/>
<path d="M497.24 841.24C483.24 842.12 480.83 833.51 481.24 827.24C481.343 825.519 481.679 823.82 482.24 822.19C483.94 817.54 483.76 808.7 483.76 808.7L483.09 792.79C483.62 793 484.9 791.73 484.9 791.73C487.33 788.13 500.27 788.02 500.9 789.73C501.53 791.44 504.51 790.28 504.51 790.28C504.51 790.28 503.87 801.1 508.32 809.79C510.928 815.216 512.488 821.085 512.92 827.09C512.98 827.89 512.99 828.35 512.99 828.35C512.99 828.35 515.79 840.07 497.24 841.24Z" fill="#36435E"/>
<path opacity="0.1" d="M497.24 841.24C483.24 842.12 480.83 833.51 481.24 827.24C481.24 827.24 484.87 833.41 497.8 831.93C503.131 831.44 508.288 829.777 512.9 827.06C512.96 827.86 512.97 828.32 512.97 828.32C512.97 828.32 515.79 840.07 497.24 841.24Z" fill="black"/>
<g opacity="0.1">
<path opacity="0.1" d="M511.67 499.32C508.8 491.12 505.67 484.32 502.83 483.75L500.3 484.01C502.94 485.43 505.84 491.75 508.49 499.32C514.297 516.123 517.238 533.782 517.19 551.56V568.26L515.07 594.78C515.07 594.78 513.37 654.6 512.07 657.78C510.77 660.96 512.92 676.02 513.13 679.21C513.34 682.4 511.64 696.21 511.64 696.21C511.64 696.21 509.73 730.79 506.98 733.54C504.23 736.29 506.98 744.15 506.98 744.15C504.067 746.309 500.597 747.589 496.98 747.84C501.685 748.254 506.38 746.942 510.19 744.15C510.19 744.15 507.43 736.3 510.19 733.54C512.95 730.78 514.85 696.21 514.85 696.21C514.85 696.21 516.55 682.42 516.34 679.21C516.13 676 514.01 660.96 515.28 657.78C516.55 654.6 518.28 594.78 518.28 594.78L520.4 568.26V551.56C520.438 533.78 517.487 516.121 511.67 499.32Z" fill="black"/>
</g>
<g opacity="0.1">
<path opacity="0.1" d="M408 745.78C408 745.78 410.52 743.44 408.61 732.41C406.7 721.38 409.88 691.47 409.88 691.47C409.88 691.47 409.46 683.83 411.58 680.47C413.7 677.11 410.52 670.47 411.36 667.53C412.2 664.59 414.76 648.43 414.76 648.43C414.76 648.43 413.67 608.74 413.67 606.61C413.416 602.84 412.396 599.161 410.67 595.8C408.76 592.4 410.67 567.8 410.67 567.8C410.67 567.8 415.12 555.07 413.67 552.32C412.22 549.57 414.67 544.68 414.67 544.68C414.67 544.68 412.34 538.95 414.67 537.89C417 536.83 417.43 532.59 417.43 532.59L419.12 512.01C419.12 512.01 419.76 502.68 421.67 502.25C423.58 501.82 422.73 498.25 424.67 495.68C426.1 493.77 427.42 486.24 427.98 482.6C426.711 482.118 425.524 481.443 424.46 480.6C424.46 480.6 422.76 493.11 420.85 495.66C418.94 498.21 419.79 501.81 417.85 502.23C415.91 502.65 415.31 511.99 415.31 511.99L413.67 532.58C413.67 532.58 413.24 536.82 410.91 537.88C408.58 538.94 410.91 544.67 410.91 544.67C410.91 544.67 408.41 549.55 409.91 552.31C411.41 555.07 406.91 567.79 406.91 567.79C406.91 567.79 405 592.4 406.91 595.79C408.636 599.152 409.656 602.83 409.91 606.6C409.91 608.73 410.97 648.39 410.97 648.39C410.97 648.39 408.42 664.52 407.58 667.49C406.74 670.46 409.91 677.03 407.79 680.43C405.67 683.83 406.09 691.43 406.09 691.43C406.09 691.43 402.88 721.39 404.79 732.39C406.7 743.39 404.18 745.76 404.18 745.76C409.01 748.328 414.463 749.489 419.92 749.11C415.751 748.887 411.681 747.75 408 745.78Z" fill="black"/>
</g>
<g opacity="0.1">
<path opacity="0.1" d="M517.78 308.84C518.78 314.17 518.78 319.66 520.23 324.89C520.518 326.186 521.058 327.413 521.82 328.5C521.7 328.15 521.59 327.79 521.5 327.44C520.11 322.2 520.03 316.71 519.06 311.38C518.527 308.145 517.441 305.026 515.85 302.16C516.736 304.309 517.383 306.549 517.78 308.84Z" fill="black"/>
<path opacity="0.1" d="M539.92 341.91C539.397 342.483 539.011 343.167 538.79 343.91C538.779 344.382 538.861 344.851 539.033 345.29C539.205 345.73 539.462 346.131 539.79 346.47C539.88 346.59 539.96 346.71 540.05 346.82C540.035 346.697 540.035 346.573 540.05 346.45C540.282 345.729 540.668 345.067 541.18 344.51C542.74 342.22 542.25 339.01 540.57 336.79C540.838 337.64 540.918 338.537 540.806 339.421C540.694 340.305 540.392 341.154 539.92 341.91Z" fill="black"/>
<path opacity="0.1" d="M530.85 377.93C530.909 379.089 530.598 380.237 529.962 381.208C529.325 382.179 528.397 382.922 527.31 383.33C524.7 384.27 521.72 383.33 519.49 381.72C517.26 380.11 515.08 377.34 512.18 377.36C508.54 377.36 506.38 381.56 502.98 382.86C499.79 384.09 496.14 382.49 493.65 380.15C491.16 377.81 489.43 374.78 487.14 372.25C481.22 365.72 472.25 363.12 463.88 360.33C455.51 357.54 446.72 353.76 442.39 346.11C442.78 346.96 443.18 347.8 443.63 348.61C447.95 356.29 456.79 360.09 465.15 362.88C473.51 365.67 482.49 368.26 488.41 374.79C490.71 377.33 492.41 380.36 494.92 382.7C497.43 385.04 501.06 386.63 504.25 385.41C507.65 384.1 509.81 379.93 513.45 379.9C516.35 379.9 518.45 382.54 520.77 384.27C523.09 386 525.98 386.82 528.58 385.87C531.18 384.92 532.97 381.72 531.78 379.22C531.546 378.74 531.231 378.304 530.85 377.93Z" fill="black"/>
<path opacity="0.1" d="M548.58 359.26C548.803 359.919 548.898 360.615 548.86 361.31C548.791 362.243 548.447 363.134 547.87 363.87C547.293 364.606 546.51 365.153 545.621 365.443C544.732 365.732 543.777 365.751 542.877 365.496C541.978 365.24 541.175 364.723 540.57 364.01C541.28 366.21 539.1 368.5 536.8 368.81C534.5 369.12 532.26 368.08 530.17 367.07C530.11 368.32 530.06 369.58 530 370.83C528.08 371.83 526 369.83 524.53 368.28C523.06 366.73 519.85 365.81 519.11 367.86C518.998 368.291 518.995 368.743 519.104 369.174C519.212 369.606 519.427 370.003 519.73 370.33C519.897 370.541 520.081 370.738 520.28 370.92C520.288 370.743 520.322 370.568 520.38 370.4C521.12 368.4 524.27 369.28 525.8 370.82C527.33 372.36 529.35 374.39 531.28 373.38C531.28 372.12 531.39 370.87 531.44 369.61C533.53 370.61 535.78 371.61 538.08 371.35C540.38 371.09 542.56 368.76 541.84 366.55C542.444 367.263 543.246 367.78 544.145 368.035C545.044 368.291 545.998 368.274 546.887 367.985C547.776 367.697 548.559 367.151 549.136 366.416C549.714 365.681 550.06 364.792 550.13 363.86C550.135 362.198 549.59 360.58 548.58 359.26Z" fill="black"/>
<path opacity="0.1" d="M438.55 338.89C435.74 335.21 430.99 333.5 427.91 330.04C427.478 329.56 427.086 329.045 426.74 328.5C427.288 330.005 428.116 331.393 429.18 332.59C432.26 336.04 437.01 337.76 439.82 341.44C440.216 341.96 440.573 342.508 440.89 343.08C440.261 341.604 439.477 340.2 438.55 338.89Z" fill="black"/>
</g>
<path opacity="0.1" d="M416.93 465.25C417.163 465.812 417.239 466.428 417.15 467.03C417.08 467.33 417 466.67 416.93 465.25Z" fill="black"/>
<path opacity="0.1" d="M416.93 462.7C417.163 463.263 417.239 463.878 417.15 464.48C417.08 464.79 417 464.13 416.93 462.7Z" fill="black"/>
<path opacity="0.1" d="M523.72 419.65C523.72 419.45 523.72 419.22 523.72 418.99C523.832 419.462 523.89 419.945 523.89 420.43C523.802 420.178 523.745 419.916 523.72 419.65Z" fill="black"/>
<path opacity="0.1" d="M436.46 686.16C436.46 686.16 419.7 702.07 424.58 701.86C429.46 701.65 436.46 686.16 436.46 686.16Z" fill="black"/>
<path opacity="0.1" d="M412.91 708.23C413.76 708.23 430.73 706.53 426.27 705.68C421.81 704.83 412.91 708.23 412.91 708.23Z" fill="black"/>
<path opacity="0.1" d="M495.43 683.62C495.43 683.62 513.43 684.25 513.04 686.16C512.65 688.07 495.43 683.62 495.43 683.62Z" fill="black"/>
<path opacity="0.1" d="M492.46 690.83C492.46 690.83 502.85 698.68 505.19 696.13C507.53 693.58 492.46 690.83 492.46 690.83Z" fill="black"/>
<path d="M678.5 170C687.613 170 695 162.613 695 153.5C695 144.387 687.613 137 678.5 137C669.387 137 662 144.387 662 153.5C662 162.613 669.387 170 678.5 170Z" fill="#F2A7A7"/>
<path d="M753 208C760.18 208 766 202.18 766 195C766 187.82 760.18 182 753 182C745.82 182 740 187.82 740 195C740 202.18 745.82 208 753 208Z" fill="#F2A7A7"/>
<path d="M206 237C229.196 237 248 218.196 248 195C248 171.804 229.196 153 206 153C182.804 153 164 171.804 164 195C164 218.196 182.804 237 206 237Z" fill="#F2A7A7"/>
<path d="M749 141C751.761 141 754 138.761 754 136C754 133.239 751.761 131 749 131C746.239 131 744 133.239 744 136C744 138.761 746.239 141 749 141Z" fill="#F2A7A7"/>
<path d="M427.199 270.582C422.927 276.289 420.341 283.08 419.733 290.184C418.863 298.83 416.332 312.66 408.965 319.929C397.741 331.004 394 339.31 394 339.31L397.741 343.463C397.741 335.157 402.73 333.772 402.73 333.772L401.483 343.463C435.154 375.304 509.98 346.232 509.98 346.232L507.485 321.313C513.721 324.082 516.215 343.463 516.215 343.463L526.192 340.694C526.192 340.694 508.732 310.238 497.509 282.551C486.285 254.863 468.825 261.785 468.825 261.785C448.248 250.787 434.658 260.986 427.199 270.582Z" fill="#2F2E41"/>
<path d="M544.342 284.844L556.434 205.844C556.434 205.844 543.536 174.405 565.302 171.18C587.067 167.956 572.557 209.068 572.557 209.068L565.302 284.844H544.342Z" fill="#FFB9B9"/>
<path d="M447.607 334.017C458.087 349.334 445.189 358.201 445.189 358.201L439.546 400.12C439.546 400.12 500.005 405.762 510.485 397.701C520.964 389.64 499.673 360.62 491.612 358.201C483.551 355.783 480.658 325.15 480.658 325.15L447.607 334.017Z" fill="#F7B0B0"/>
<path d="M485.852 297.73C480.667 278.377 463.913 266.051 448.431 270.199C432.95 274.347 424.603 293.399 429.789 312.752C434.974 332.104 451.728 344.43 467.21 340.282C482.691 336.134 491.038 317.082 485.852 297.73Z" fill="#FFB9B9"/>
<path d="M449.778 352.913L417.378 348.931L413.75 383.191C413.75 383.191 415.362 459.773 413.75 473.477C412.138 487.181 441.158 502.497 441.158 502.497C441.158 502.497 483.077 499.273 491.138 495.242C499.199 491.212 504.445 498.603 511 495.242C519.469 490.9 521.552 480.789 520.5 471.5C514.5 418.5 518.5 377.5 518.5 377.5L506.824 345.941L485.907 349.744L481.465 379.966L449.778 352.913Z" fill="#F26680"/>
<path d="M517.741 380.772L549.986 339.66L572.557 284.037L541.118 271.946L528.22 317.895L505.648 345.303L504.842 350.14L517.741 380.772Z" fill="#F26680"/>
<g opacity="0.15">
<path d="M429.47 429.543L461.715 442.441L426.245 435.185L423.827 389.237L429.47 429.543Z" fill="black"/>
<path d="M414 464H465L464.5 463C472.833 462.5 491.3 461.5 498.5 461.5C507.5 461.5 515.5 464.5 517.5 465.5C519.5 466.5 504.5 466.011 494 464C485.6 462.391 472.833 463.33 467.5 464L414 468C414.167 467.167 414.4 465.2 414 464Z" fill="black"/>
</g>
<path d="M416.134 443.355L495.998 446.361C495.998 446.361 525.761 429.962 531.446 451.218C537.131 472.474 494.632 462.746 494.632 462.746H417.5L416.134 443.355Z" fill="#FFB9B9"/>
<path d="M423.021 437.604L460.102 440.023L464.939 465.012C464.939 465.012 419.796 464.206 402.061 463.4C384.327 462.594 402.061 387.625 404.48 365.053C406.898 342.482 418.99 348.931 418.99 348.931L426.245 354.573L423.021 437.604Z" fill="#F26680"/>
<path d="M445.341 299.67C470.695 296.628 474.076 275.162 472.597 264.809C444.201 254.16 430.34 281.923 426.96 297.135C441.158 303.22 453.581 295.445 458.018 290.797C456.497 295.867 448.933 298.825 445.341 299.67Z" fill="#2F2E41"/>
</g>
<defs>
<linearGradient id="paint0_linear" x1="453.5" y1="96" x2="709.5" y2="642" gradientUnits="userSpaceOnUse">
<stop stop-color="#F2A7A7"/>
<stop offset="1" stop-color="#F0A5A5"/>
</linearGradient>
<linearGradient id="paint1_linear" x1="560.256" y1="1378.89" x2="560.256" y2="1375.4" gradientUnits="userSpaceOnUse">
<stop stop-color="#808080" stop-opacity="0.25"/>
<stop offset="0.54" stop-color="#808080" stop-opacity="0.12"/>
<stop offset="1" stop-color="#808080" stop-opacity="0.1"/>
</linearGradient>
<clipPath id="clip0">
<rect width="915.35" height="848.79" fill="white"/>
</clipPath>
</defs>
</svg>
