<svg width="916" height="849" viewBox="0 0 916 849" fill="none" xmlns="http://www.w3.org/2000/svg">
<g clip-path="url(#clip0)">
<path d="M453.12 848.79C575.241 848.79 674.24 841.219 674.24 831.88C674.24 822.541 575.241 814.97 453.12 814.97C330.999 814.97 232 822.541 232 831.88C232 841.219 330.999 848.79 453.12 848.79Z" fill="#F2A7A7"/>
<path d="M318.337 124.595C342.281 99.4925 379.952 94.376 414.231 96.399C521.88 102.677 619.064 163.722 703.109 232.768C733.534 257.771 763.495 284.705 783.253 319.124C823.464 389.196 811.531 486.274 755.616 543.999C736.592 563.64 713.536 578.699 689.862 592.08C647.766 615.813 602.341 634.864 554.568 640.28C520.498 644.153 486.002 641.005 452.132 635.608C357.513 620.476 264.624 587.191 186.766 530.11C152.618 505.099 120.432 474.009 106.359 433.539C92.2862 393.069 101.292 341.804 136.159 317.854C150.579 307.947 167.827 303.475 184.704 299.275C209.552 293.088 234.802 286.991 257.225 274.427C280.397 261.436 307.802 236.325 303.221 207.594C298.301 176.758 294.393 149.669 318.337 124.595Z" fill="#F2A7A7"/>
<path d="M561.09 422.39C557.888 419.141 554.495 416.086 550.93 413.24C551.36 407.88 552.36 395.05 552.45 392.58C552.55 389.45 547.94 385.45 538.08 381.76C528.22 378.07 531.08 395.28 531.22 396.83C531.36 398.38 533.51 403.07 537.22 404.61C538.55 405.16 538.91 405.85 538.82 406.5L538.51 406.45C530.4 405.45 526.74 403.57 526.74 403.57C526.74 403.57 523.74 412.57 523.74 416.89C523.74 417.13 523.74 417.36 523.74 417.57C523.641 418.352 523.723 419.145 523.98 419.89H524.67C524.755 421.057 524.567 422.228 524.12 423.31C523.828 424.146 523.494 424.967 523.12 425.77C522.83 423.31 522.673 420.837 522.65 418.36C522.81 415.96 518.99 406.21 518.99 406.21C518.99 406.21 517.4 405.57 514.06 401.73C510.72 397.89 508.06 396.29 505.79 395.49C503.52 394.69 495.29 383.98 491.9 381.49C489.2 379.49 488.11 380.67 487.78 381.23L487.58 381.37C486.01 379.19 484.89 377.11 484.89 375.63C484.89 374.54 485 372.3 485.2 369.46C486.377 370.365 487.474 371.368 488.48 372.46C490.78 375.01 492.48 378.05 494.99 380.4C496.894 382.325 499.463 383.449 502.17 383.54C503.055 383.578 503.939 383.439 504.77 383.13C508.11 381.84 510.26 377.77 513.77 377.61C516.53 377.75 518.56 380.3 520.82 381.98C522.48 383.275 524.525 383.979 526.63 383.98C527.464 384.006 528.295 383.873 529.08 383.59C531.68 382.59 533.46 379.42 532.27 376.91C530.43 373.03 524.17 373.91 521.5 370.53C521.195 370.203 520.978 369.804 520.87 369.37C520.761 368.936 520.765 368.482 520.88 368.05C520.994 367.71 521.211 367.413 521.502 367.202C521.792 366.99 522.141 366.874 522.5 366.87C523.765 367.01 524.946 367.574 525.85 368.47C527.15 369.79 528.85 371.47 530.46 371.29C530.912 371.345 531.37 371.257 531.77 371.04C531.82 369.85 531.88 368.66 531.93 367.47C533.634 368.426 535.538 368.967 537.49 369.05C537.851 369.063 538.212 369.047 538.57 369C540.68 368.72 542.69 366.76 542.45 364.72C543.382 365.493 544.57 365.889 545.78 365.83C546.321 365.859 546.863 365.792 547.38 365.63C548.264 365.324 549.041 364.768 549.616 364.03C550.191 363.292 550.54 362.402 550.62 361.47C550.78 359.25 549.41 357.25 548.09 355.47L541.55 346.53C540.888 345.836 540.529 344.908 540.55 343.95C540.775 343.21 541.157 342.528 541.67 341.95C543.45 339.35 542.58 335.54 540.31 333.35C538.04 331.16 534.73 330.4 531.59 330.46C529.22 330.51 526.59 330.91 524.68 329.56C523.17 328.56 522.46 326.64 521.98 324.85C520.59 319.59 520.51 314.07 519.54 308.72C518.57 303.37 516.48 297.87 512.14 294.61C511.158 293.801 509.97 293.282 508.71 293.11C507.645 293.127 506.583 293.214 505.53 293.37C501.93 293.57 498.72 291.09 496.45 288.27C494.18 285.45 492.45 282.17 489.84 279.7C485.99 275.83 479.62 274.7 474.5 276.15C472.16 276.8 470.3 278.7 467.88 278.8C464.33 278.96 460.48 278.15 456.94 277.8C453.61 277.5 450.21 277.21 446.94 278.02C445.473 278.342 444.091 278.971 442.884 279.865C441.678 280.76 440.674 281.9 439.94 283.21L439.09 276C439.09 276 437.33 262.4 436.54 261.29C435.97 260.48 436.22 259.35 436.64 258.08L436.8 258.23C436.92 257.87 437.05 257.5 437.18 257.13C437.225 256.852 437.225 256.568 437.18 256.29C437.49 253.56 432.53 236.18 432.53 236.18H428.07C428.07 235.97 428 235.75 427.96 235.54C426.66 228.47 424.47 217.42 422.96 214.76C421.96 212.93 421.85 210.32 422.06 208.04C422.325 205.405 423.5 201.5 423.5 201.5C423.5 201.5 424.328 197.266 424.5 196C424.672 194.734 432.82 165.25 424.5 165C413.84 164.68 408.729 167.452 404 175C398.735 183.403 403.5 200.5 403.5 200.5C403.5 200.5 404.86 206.96 405.5 210C405.94 212.11 408.23 226.56 408.65 235.95C406.04 235.63 401.48 233.26 401.48 233.26C401.48 233.26 389.07 229.91 387.95 233.26C386.83 236.61 403.07 252.77 403.07 252.77C403.07 252.77 408.8 267.96 407.07 272.77C405.34 277.58 406.59 300.27 406.59 300.27C406.59 300.27 406.75 327.27 407.94 334.17C409.13 341.07 405.79 344.88 405.79 344.88C405.79 344.88 404.36 361.83 405.79 363.43C407.252 365.426 408.562 367.528 409.71 369.72L410.13 370.48C405.43 376.22 400.76 381.71 398.31 382.48C393.54 383.92 360.93 397.48 360.93 397.48C360.93 397.48 350.28 407.66 348.67 407.66C347.06 407.66 358.37 418.54 358.37 418.54C358.37 418.54 368.55 426.69 369.67 427.97C370.79 429.25 398.67 444.44 398.67 444.44C398.67 444.44 403.45 445.88 403.92 447.32C404.39 448.76 410.76 452.75 410.76 452.75C410.76 452.75 415.64 458.39 416.92 461.99C416.92 462.25 416.92 462.47 416.99 462.68C417.05 463.68 417.12 464.14 417.18 463.9C418.03 466.24 423.76 472.21 421 476.47C419.72 478.47 421 482.06 423.47 484.96C422.8 488.54 421.87 492.62 420.87 493.96C418.96 496.52 419.81 500.14 417.87 500.57C415.93 501 415.32 510.38 415.32 510.38L413.67 531.05C413.67 531.05 413.24 535.31 410.91 536.38C408.58 537.45 410.91 543.2 410.91 543.2C410.91 543.2 408.41 548.1 409.91 550.87C411.41 553.64 406.91 566.44 406.91 566.44C406.91 566.44 405 591.17 406.91 594.58C408.637 597.962 409.657 601.661 409.91 605.45C409.91 607.58 410.97 647.45 410.97 647.45C410.97 647.45 408.42 663.65 407.57 666.63C406.72 669.61 409.91 676.23 407.79 679.63C405.67 683.03 406.09 690.71 406.09 690.71C406.09 690.71 402.91 720.77 404.82 731.86C406.73 742.95 404.21 745.29 404.21 745.29C405.52 746.032 406.9 746.641 408.33 747.11C408.38 747.53 408.43 747.98 408.48 748.44C409.48 757.74 410.95 773.76 409.61 777.44C408.27 781.12 407.89 788.06 407.76 792C407.76 792.23 407.76 792.44 407.76 792.65L404.05 798.65C404.05 798.65 403.31 803.94 402.35 804.79C401.39 805.64 393.42 820.11 392.35 821.97L392.24 822.17C392.24 822.17 384.18 836.99 404.12 837.41C424.06 837.83 421.51 827.61 421.51 827.61C421.51 827.61 421.57 825.61 421.76 823.16C422 820.16 422.44 816.51 423.21 815.56C424.59 813.86 428.62 805.86 428.62 805.86V794.12H427.34C427.34 793.92 427.34 793.7 427.41 793.48C427.579 791.037 427.95 788.612 428.52 786.23C429.15 784.74 427.14 775.78 427.14 775.78C427.14 775.78 427.58 758.55 429.55 747.66C429.64 747.18 429.73 746.71 429.82 746.26C431.301 745.616 432.735 744.867 434.11 744.02C434.11 744.02 434.11 722.28 436.66 718.44C439.21 714.6 438.67 703.73 438.67 703.73C438.67 703.73 439.3 694.14 441.21 692.22C443.12 690.3 442.67 681.77 442.67 681.77C442.67 681.77 444.36 676.23 446.27 671.77C448.18 667.31 449.27 654.72 449.27 654.72C449.933 652.51 450.946 650.42 452.27 648.53C454.4 645.53 452.27 638.94 452.27 638.94C452.27 638.94 449.94 634.68 451.43 630.41C452.92 626.14 461.18 591.61 461.18 591.61L464.37 579.25L469.03 595.02C469.03 595.02 468.4 606.32 469.03 609.52C469.66 612.72 474.12 619.52 474.12 619.52V652.99C474.12 652.99 474.55 675.59 476.25 679.21C477.95 682.83 478.79 696.27 478.79 696.27C478.79 696.27 484.52 735.71 480.91 741.46C482.755 742.717 484.717 743.792 486.77 744.67V767.9C486.77 767.9 482.61 781.96 484.03 791.53C484.03 791.72 484.09 791.91 484.12 792.1C483.74 792.38 483.32 792.62 483.06 792.52L483.73 808.52C483.73 808.52 483.91 817.4 482.21 822.07C481.65 823.711 481.313 825.419 481.21 827.15C480.84 833.48 483.28 842.15 497.21 841.25C515.76 840.07 512.9 828.25 512.9 828.25C512.9 828.25 512.9 827.79 512.83 826.98C512.4 820.949 510.84 815.053 508.23 809.6C503.78 800.86 504.42 789.98 504.42 789.98C504.053 790.112 503.674 790.212 503.29 790.28C503.29 790.07 503.29 789.85 503.34 789.63C503.58 786.63 503.95 782.74 504.34 780.92C504.97 777.72 504.34 770.27 504.34 770.27L506.73 746.92L506.86 745.62C508.021 745.065 509.123 744.395 510.15 743.62C509.441 741.521 509.027 739.333 508.92 737.12C508.783 735.642 509.224 734.169 510.15 733.01C512.91 730.24 514.81 695.49 514.81 695.49C514.81 695.49 516.31 683.26 516.32 679.13C516.32 678.84 516.32 678.59 516.32 678.39C516.15 675.9 514.83 666.15 514.85 660.46C514.796 659.259 514.934 658.057 515.26 656.9C516.53 653.7 518.26 593.58 518.26 593.58L520.38 566.94V545.06C520.382 534.588 519.11 524.154 516.59 513.99C522.37 516.99 532.28 523.81 534.09 521.99C536.32 519.75 537.43 481.37 536.79 477.54C536.79 477.33 536.71 477.06 536.64 476.76C536.49 476.06 536.27 475.12 536 474.03L536.88 472.5C541.23 464.97 547.88 453.01 548.41 449.5C549.01 445.5 549.8 435.11 551.3 430.56C551.42 430.194 551.563 429.837 551.73 429.49C552.12 428.7 552.54 428.27 553.02 428.39C555.73 429.03 557.48 431.11 558.91 430.31C558.982 430.268 559.047 430.214 559.1 430.15C559.242 429.997 559.363 429.825 559.46 429.64C559.589 429.406 559.7 429.162 559.79 428.91C559.89 428.65 559.98 428.36 560.07 428.05V427.96C560.07 427.83 560.14 427.7 560.17 427.57C560.174 427.527 560.174 427.483 560.17 427.44C560.17 427.33 560.22 427.21 560.25 427.1L560.31 426.85V426.72C560.56 425.59 560.75 424.42 560.87 423.6C560.87 423.3 560.94 423.05 560.97 422.86V422.46L561.09 422.39Z" fill="url(#paint0_linear)"/>
<path d="M417.15 465.17C417.239 464.564 417.163 463.946 416.93 463.38C417 464.82 417.08 465.48 417.15 465.17Z" fill="url(#paint1_linear)"/>
<path d="M537.11 410.86C537.11 410.86 540.89 408.28 537.2 406.76C533.51 405.24 531.34 400.56 531.2 399.02C531.06 397.48 528.2 380.36 538.06 384.02C547.92 387.68 552.53 391.66 552.43 394.78C552.33 397.9 550.73 417.68 550.73 417.68L537.11 410.86Z" fill="#FBBEBE"/>
<path d="M561.09 424.45C561.09 424.45 561.09 424.91 560.94 425.59C560.65 427.59 559.94 431.71 558.86 432.3C557.43 433.1 555.68 431.03 552.97 430.39C552.49 430.28 552.07 430.7 551.68 431.49C551.515 431.834 551.371 432.188 551.25 432.55C549.75 437.09 548.96 447.43 548.36 451.41C547.82 454.92 541.18 466.83 536.83 474.32C536.18 475.45 535.57 476.48 535.05 477.32C533.85 479.32 533.05 480.63 533.05 480.63L522.05 460.01V429.6C522.837 428.257 523.506 426.848 524.05 425.39C524.497 424.315 524.686 423.151 524.6 421.99C524.556 421.614 524.391 421.263 524.13 420.99C524.044 420.898 523.973 420.794 523.92 420.68C523.879 420.596 523.846 420.509 523.82 420.42C523.742 420.167 523.695 419.905 523.68 419.64C523.68 419.44 523.68 419.21 523.68 418.98C523.68 414.69 526.68 405.72 526.68 405.72C526.68 405.72 530.34 407.63 538.45 408.58C546.56 409.53 561.09 424.45 561.09 424.45Z" fill="#F26680"/>
<path opacity="0.1" d="M560.94 425.59C560.65 427.59 559.94 431.71 558.86 432.3C557.43 433.1 555.68 431.03 552.97 430.39C552.49 430.28 552.07 430.7 551.68 431.49C551.515 431.834 551.371 432.188 551.25 432.55C545.78 429.89 536.25 425.07 535.64 423.71C535.03 422.35 528.39 422.04 524.64 421.98H523.96C523.702 421.239 523.62 420.448 523.72 419.67C524 415.2 526.72 407.03 526.72 407.03C526.72 407.03 530.38 408.94 538.49 409.89C546.14 410.77 559.42 424.05 560.94 425.59Z" fill="black"/>
<path d="M561.09 424.46C561.09 424.46 560.29 431.51 558.86 432.3C557.43 433.09 555.68 431.03 552.97 430.4C552.49 430.28 552.07 430.7 551.68 431.49C546.29 428.87 536.23 423.83 535.68 422.44C535.13 421.05 527.56 420.73 524 420.69C522.69 417.95 526.76 405.69 526.76 405.69C526.76 405.69 530.42 407.6 538.53 408.56C546.64 409.52 561.09 424.46 561.09 424.46Z" fill="#F26680"/>
<path d="M534.04 523.56C531.81 525.79 517.33 514.97 513.36 514.33C509.39 513.69 494.96 453.25 494.96 453.25L497.13 419.19L488.67 387.85L487.57 383.75C487.57 383.75 488.41 381.25 491.81 383.75C495.21 386.25 503.47 396.91 505.7 397.7C507.93 398.49 510.63 400.1 513.97 403.92C517.31 407.74 518.9 408.37 518.9 408.37C518.9 408.37 522.72 418.08 522.56 420.46C522.4 422.84 523.84 439.08 525.56 440.51C527.28 441.94 530.17 454.99 530.17 454.99C530.17 454.99 535.43 473.32 536.54 478.55C536.613 478.857 536.663 479.117 536.69 479.33C537.38 483.15 536.27 521.33 534.04 523.56Z" fill="#F26680"/>
<path opacity="0.1" d="M511 436L519.72 450.53C519.72 450.53 521.72 468.67 522.46 469.63C523.2 470.59 525.76 507.81 525.76 507.81L509.22 500.33L503.01 480.33V458.2L511 436Z" fill="black"/>
<path d="M430.94 742.17C430.263 744.122 429.757 746.13 429.43 748.17C427.43 759.01 427.02 776.17 427.02 776.17C427.02 776.17 429.02 785.08 428.4 786.57C427.829 788.938 427.458 791.35 427.29 793.78C427.12 795.34 427.02 796.53 427.02 796.53L407.6 795.26C407.6 795.26 407.6 794.11 407.66 792.35C407.79 788.43 408.2 781.53 409.51 777.87C410.82 774.21 409.39 758.23 408.38 748.97C407.95 744.97 407.6 742.23 407.6 742.23C407.6 742.23 434.21 733.65 430.94 742.17Z" fill="#FBBEBE"/>
<path d="M506.73 747.39L504.34 770.62C504.34 770.62 504.97 778.04 504.34 781.22C503.98 783.03 503.61 786.89 503.34 789.89C503.16 792.16 503.04 793.95 503.04 793.95C503.04 793.95 488.19 804.35 484.8 795.22C484.396 794.114 484.114 792.967 483.96 791.8C482.54 782.27 486.7 768.28 486.7 768.28V738.39L507.28 741.75L506.73 747.39Z" fill="#FBBEBE"/>
<path opacity="0.1" d="M430.94 742.17C430.263 744.122 429.757 746.13 429.43 748.17C422.762 750.99 415.291 751.271 408.43 748.96C408 744.96 407.65 742.22 407.65 742.22C407.65 742.22 434.21 733.65 430.94 742.17Z" fill="black"/>
<path opacity="0.1" d="M507.31 741.74L506.73 747.37C499.53 750.67 491.84 748.65 486.73 746.37V738.37L507.31 741.74Z" fill="black"/>
<path d="M424.44 480.6C424.44 480.6 422.75 493.12 420.84 495.67C418.93 498.22 419.78 501.82 417.84 502.24C415.9 502.66 415.29 512 415.29 512L413.67 532.58C413.67 532.58 413.24 536.82 410.91 537.88C408.58 538.94 410.91 544.67 410.91 544.67C410.91 544.67 408.41 549.55 409.91 552.31C411.41 555.07 406.91 567.79 406.91 567.79C406.91 567.79 405 592.4 406.91 595.79C408.635 599.155 409.655 602.837 409.91 606.61C409.91 608.73 410.97 648.4 410.97 648.4C410.97 648.4 408.42 664.53 407.57 667.5C406.72 670.47 409.91 677.04 407.79 680.44C405.67 683.84 406.09 691.44 406.09 691.44C406.09 691.44 402.81 721.39 404.72 732.39C406.63 743.39 404.11 745.75 404.11 745.75C408.757 748.201 413.972 749.375 419.222 749.152C424.471 748.929 429.567 747.317 433.99 744.48C433.99 744.48 433.99 722.84 436.54 719.02C439.09 715.2 438.67 704.39 438.67 704.39C438.67 704.39 439.3 694.84 441.21 692.93C443.12 691.02 442.67 682.56 442.67 682.56C442.67 682.56 444.36 677.04 446.27 672.56C448.18 668.08 449.27 655.56 449.27 655.56C449.933 653.359 450.946 651.279 452.27 649.4C454.4 646.4 452.27 639.86 452.27 639.86C452.27 639.86 449.94 635.61 451.43 631.37C452.92 627.13 461.18 592.76 461.18 592.76L464.37 580.46L469.03 596.16C469.03 596.16 468.4 607.4 469.03 610.58C469.66 613.76 474.12 620.58 474.12 620.58V653.89C474.12 653.89 474.55 676.38 476.25 679.98C477.95 683.58 478.79 696.98 478.79 696.98C478.79 696.98 484.52 736.23 480.91 741.98C480.91 741.98 497.25 753.64 510.19 744.1C510.19 744.1 507.43 736.25 510.19 733.49C512.95 730.73 514.85 696.15 514.85 696.15C514.85 696.15 516.55 682.36 516.34 679.15C516.13 675.94 514.01 660.91 515.28 657.73C516.55 654.55 518.28 594.73 518.28 594.73L520.4 568.22V546.52C520.408 534.774 518.793 523.084 515.6 511.78C512.01 499.13 507.04 484.62 502.86 483.71C502.79 483.71 436.96 491 424.44 480.6Z" fill="#36435E"/>
<path opacity="0.1" d="M427.29 793.72C427.12 795.28 427.02 796.47 427.02 796.47L407.6 795.2C407.6 795.2 407.6 794.05 407.66 792.29C416.77 784.21 425.85 793.72 425.85 793.72H427.29Z" fill="black"/>
<path d="M428.5 794.39V806.17C428.5 806.17 424.5 814.17 423.09 815.82C422.32 816.76 421.88 820.37 421.64 823.38C421.45 825.78 421.39 827.8 421.39 827.8C421.39 827.8 423.94 837.99 404 837.56C384.06 837.13 392.12 822.39 392.12 822.39L392.23 822.2C393.23 820.34 401.3 805.9 402.23 805.1C403.16 804.3 403.93 798.99 403.93 798.99L407.64 792.99C416.77 784.83 425.89 794.37 425.89 794.37L428.5 794.39Z" fill="#36435E"/>
<path opacity="0.1" d="M421.39 827.76C421.39 827.76 423.94 837.95 404 837.52C384.06 837.09 392.12 822.39 392.12 822.39L392.23 822.2C392.78 825.2 395.13 828.31 402.62 827.91C412.77 827.38 418.96 824.79 421.62 823.38C421.45 825.74 421.39 827.76 421.39 827.76Z" fill="black"/>
<path opacity="0.1" d="M503.37 789.87C503.19 792.14 503.07 793.93 503.07 793.93C503.07 793.93 488.22 804.33 484.83 795.2C484.426 794.094 484.144 792.947 483.99 791.78C484.286 791.559 484.567 791.319 484.83 791.06C487.26 787.46 500.2 787.35 500.83 789.06C501.22 790.04 502.45 790.04 503.37 789.87Z" fill="black"/>
<path d="M497.24 841.24C483.24 842.12 480.83 833.51 481.24 827.24C481.343 825.519 481.679 823.82 482.24 822.19C483.94 817.54 483.76 808.7 483.76 808.7L483.09 792.79C483.62 793 484.9 791.73 484.9 791.73C487.33 788.13 500.27 788.02 500.9 789.73C501.53 791.44 504.51 790.28 504.51 790.28C504.51 790.28 503.87 801.1 508.32 809.79C510.928 815.216 512.488 821.085 512.92 827.09C512.98 827.89 512.99 828.35 512.99 828.35C512.99 828.35 515.79 840.07 497.24 841.24Z" fill="#36435E"/>
<path opacity="0.1" d="M497.24 841.24C483.24 842.12 480.83 833.51 481.24 827.24C481.24 827.24 484.87 833.41 497.8 831.93C503.131 831.44 508.288 829.777 512.9 827.06C512.96 827.86 512.97 828.32 512.97 828.32C512.97 828.32 515.79 840.07 497.24 841.24Z" fill="black"/>
<g opacity="0.1">
<path opacity="0.1" d="M511.67 499.32C508.8 491.12 505.67 484.32 502.83 483.75L500.3 484.01C502.94 485.43 505.84 491.75 508.49 499.32C514.297 516.123 517.238 533.782 517.19 551.56V568.26L515.07 594.78C515.07 594.78 513.37 654.6 512.07 657.78C510.77 660.96 512.92 676.02 513.13 679.21C513.34 682.4 511.64 696.21 511.64 696.21C511.64 696.21 509.73 730.79 506.98 733.54C504.23 736.29 506.98 744.15 506.98 744.15C504.067 746.309 500.597 747.589 496.98 747.84C501.685 748.254 506.38 746.942 510.19 744.15C510.19 744.15 507.43 736.3 510.19 733.54C512.95 730.78 514.85 696.21 514.85 696.21C514.85 696.21 516.55 682.42 516.34 679.21C516.13 676 514.01 660.96 515.28 657.78C516.55 654.6 518.28 594.78 518.28 594.78L520.4 568.26V551.56C520.438 533.78 517.487 516.121 511.67 499.32Z" fill="black"/>
</g>
<g opacity="0.1">
<path opacity="0.1" d="M408 745.78C408 745.78 410.52 743.44 408.61 732.41C406.7 721.38 409.88 691.47 409.88 691.47C409.88 691.47 409.46 683.83 411.58 680.47C413.7 677.11 410.52 670.47 411.36 667.53C412.2 664.59 414.76 648.43 414.76 648.43C414.76 648.43 413.67 608.74 413.67 606.61C413.416 602.84 412.396 599.161 410.67 595.8C408.76 592.4 410.67 567.8 410.67 567.8C410.67 567.8 415.12 555.07 413.67 552.32C412.22 549.57 414.67 544.68 414.67 544.68C414.67 544.68 412.34 538.95 414.67 537.89C417 536.83 417.43 532.59 417.43 532.59L419.12 512.01C419.12 512.01 419.76 502.68 421.67 502.25C423.58 501.82 422.73 498.25 424.67 495.68C426.1 493.77 427.42 486.24 427.98 482.6C426.711 482.118 425.524 481.443 424.46 480.6C424.46 480.6 422.76 493.11 420.85 495.66C418.94 498.21 419.79 501.81 417.85 502.23C415.91 502.65 415.31 511.99 415.31 511.99L413.67 532.58C413.67 532.58 413.24 536.82 410.91 537.88C408.58 538.94 410.91 544.67 410.91 544.67C410.91 544.67 408.41 549.55 409.91 552.31C411.41 555.07 406.91 567.79 406.91 567.79C406.91 567.79 405 592.4 406.91 595.79C408.636 599.152 409.656 602.83 409.91 606.6C409.91 608.73 410.97 648.39 410.97 648.39C410.97 648.39 408.42 664.52 407.58 667.49C406.74 670.46 409.91 677.03 407.79 680.43C405.67 683.83 406.09 691.43 406.09 691.43C406.09 691.43 402.88 721.39 404.79 732.39C406.7 743.39 404.18 745.76 404.18 745.76C409.01 748.328 414.463 749.489 419.92 749.11C415.751 748.887 411.681 747.75 408 745.78Z" fill="black"/>
</g>
<path d="M489.8 282.51C492.43 284.97 494.14 288.24 496.41 291.04C498.68 293.84 501.89 296.31 505.49 296.12C506.543 295.961 507.605 295.87 508.67 295.85C509.93 296.022 511.118 296.541 512.1 297.35C516.44 300.59 518.53 306.05 519.5 311.35C520.47 316.65 520.5 322.17 521.94 327.41C522.42 329.19 523.13 331.05 524.64 332.1C526.59 333.44 529.18 333.03 531.55 332.99C534.69 332.93 538 333.7 540.27 335.87C542.54 338.04 543.41 341.87 541.63 344.43C541.12 344.988 540.738 345.65 540.51 346.37C540.499 346.843 540.581 347.314 540.753 347.755C540.924 348.196 541.182 348.599 541.51 348.94L548.05 357.84C549.37 359.62 550.74 361.62 550.58 363.84C550.512 364.772 550.168 365.663 549.592 366.398C549.016 367.134 548.233 367.681 547.345 367.969C546.456 368.258 545.501 368.275 544.603 368.019C543.704 367.763 542.903 367.244 542.3 366.53C543.01 368.74 540.83 371.03 538.53 371.33C536.23 371.63 533.99 370.6 531.9 369.59L531.73 373.36C529.81 374.36 527.78 372.36 526.25 370.8C524.72 369.24 521.57 368.34 520.84 370.38C520.725 370.812 520.721 371.266 520.83 371.7C520.938 372.134 521.155 372.533 521.46 372.86C524.13 376.19 530.39 375.34 532.23 379.2C533.42 381.7 531.64 384.9 529.04 385.85C526.44 386.8 523.45 385.85 521.22 384.25C518.99 382.65 516.81 379.86 513.9 379.88C510.27 379.88 508.1 384.08 504.71 385.39C501.52 386.61 497.87 385.02 495.38 382.68C492.89 380.34 491.16 377.31 488.86 374.77C482.94 368.24 473.97 365.65 465.61 362.86C457.25 360.07 448.4 356.27 444.08 348.59C442.76 346.22 441.92 343.59 440.28 341.42C437.46 337.74 432.72 336.02 429.63 332.57C427.92 330.59 426.814 328.161 426.444 325.571C426.073 322.982 426.454 320.34 427.54 317.96C429 314.87 431.54 312.48 433.63 309.74C437.11 305.043 439.011 299.365 439.06 293.52C439.06 291.32 438.83 289.05 439.53 286.96C440.6 283.8 443.7 281.67 446.94 280.86C450.18 280.05 453.58 280.34 456.94 280.63C460.48 280.95 464.33 281.75 467.88 281.63C470.3 281.52 472.16 279.63 474.5 278.99C479.58 277.56 485.95 278.66 489.8 282.51Z" fill="#3F3D56"/>
<g opacity="0.1">
<path opacity="0.1" d="M517.78 308.84C518.78 314.17 518.78 319.66 520.23 324.89C520.518 326.186 521.058 327.413 521.82 328.5C521.7 328.15 521.59 327.79 521.5 327.44C520.11 322.2 520.03 316.71 519.06 311.38C518.527 308.145 517.441 305.026 515.85 302.16C516.736 304.309 517.383 306.549 517.78 308.84Z" fill="black"/>
<path opacity="0.1" d="M539.92 341.91C539.397 342.483 539.011 343.167 538.79 343.91C538.779 344.382 538.861 344.851 539.033 345.29C539.205 345.73 539.462 346.131 539.79 346.47C539.88 346.59 539.96 346.71 540.05 346.82C540.035 346.697 540.035 346.573 540.05 346.45C540.282 345.729 540.668 345.067 541.18 344.51C542.74 342.22 542.25 339.01 540.57 336.79C540.838 337.64 540.918 338.537 540.806 339.421C540.694 340.305 540.392 341.154 539.92 341.91Z" fill="black"/>
<path opacity="0.1" d="M530.85 377.93C530.909 379.089 530.598 380.237 529.962 381.208C529.325 382.179 528.397 382.922 527.31 383.33C524.7 384.27 521.72 383.33 519.49 381.72C517.26 380.11 515.08 377.34 512.18 377.36C508.54 377.36 506.38 381.56 502.98 382.86C499.79 384.09 496.14 382.49 493.65 380.15C491.16 377.81 489.43 374.78 487.14 372.25C481.22 365.72 472.25 363.12 463.88 360.33C455.51 357.54 446.72 353.76 442.39 346.11C442.78 346.96 443.18 347.8 443.63 348.61C447.95 356.29 456.79 360.09 465.15 362.88C473.51 365.67 482.49 368.26 488.41 374.79C490.71 377.33 492.41 380.36 494.92 382.7C497.43 385.04 501.06 386.63 504.25 385.41C507.65 384.1 509.81 379.93 513.45 379.9C516.35 379.9 518.45 382.54 520.77 384.27C523.09 386 525.98 386.82 528.58 385.87C531.18 384.92 532.97 381.72 531.78 379.22C531.546 378.74 531.231 378.304 530.85 377.93Z" fill="black"/>
<path opacity="0.1" d="M548.58 359.26C548.803 359.919 548.898 360.615 548.86 361.31C548.791 362.243 548.447 363.134 547.87 363.87C547.293 364.606 546.51 365.153 545.621 365.443C544.732 365.732 543.777 365.751 542.877 365.496C541.978 365.24 541.175 364.723 540.57 364.01C541.28 366.21 539.1 368.5 536.8 368.81C534.5 369.12 532.26 368.08 530.17 367.07C530.11 368.32 530.06 369.58 530 370.83C528.08 371.83 526 369.83 524.53 368.28C523.06 366.73 519.85 365.81 519.11 367.86C518.998 368.291 518.995 368.743 519.104 369.174C519.212 369.606 519.427 370.003 519.73 370.33C519.897 370.541 520.081 370.738 520.28 370.92C520.288 370.743 520.322 370.568 520.38 370.4C521.12 368.4 524.27 369.28 525.8 370.82C527.33 372.36 529.35 374.39 531.28 373.38C531.28 372.12 531.39 370.87 531.44 369.61C533.53 370.61 535.78 371.61 538.08 371.35C540.38 371.09 542.56 368.76 541.84 366.55C542.444 367.263 543.246 367.78 544.145 368.035C545.044 368.291 545.998 368.274 546.887 367.985C547.776 367.697 548.559 367.151 549.136 366.416C549.714 365.681 550.06 364.792 550.13 363.86C550.135 362.198 549.59 360.58 548.58 359.26Z" fill="black"/>
<path opacity="0.1" d="M438.55 338.89C435.74 335.21 430.99 333.5 427.91 330.04C427.478 329.56 427.086 329.045 426.74 328.5C427.288 330.005 428.116 331.393 429.18 332.59C432.26 336.04 437.01 337.76 439.82 341.44C440.216 341.96 440.573 342.508 440.89 343.08C440.261 341.604 439.477 340.2 438.55 338.89Z" fill="black"/>
</g>
<path d="M457.46 336.78C457.46 336.78 459.79 362.66 449.18 370.5C438.57 378.34 471.88 399.78 471.88 399.78L497.13 394.26C497.13 394.26 484.82 382.81 484.82 377.93C484.82 373.05 486.94 345.68 490.34 342.5C493.74 339.32 457.46 336.78 457.46 336.78Z" fill="#FBBEBE"/>
<path d="M450.08 336.78L444.31 349.39C444.31 349.39 435.71 354.49 435.08 354.96C434.45 355.43 427.6 363.24 427.6 363.24L410.73 374.06C410.73 374.06 410.32 373.29 409.73 372.2C408.578 370.02 407.268 367.928 405.81 365.94C404.38 364.35 405.81 347.49 405.81 347.49C405.81 347.49 409.15 343.67 407.96 336.83C406.77 329.99 406.61 303.1 406.61 303.1C406.61 303.1 405.34 280.5 407.09 275.73C408.84 270.96 403.09 255.84 403.09 255.84C403.09 255.84 386.87 239.72 387.98 236.39C389.09 233.06 401.51 236.39 401.51 236.39C401.51 236.39 406.44 238.94 408.98 239.1C410.52 239.19 418.75 239.23 425.06 239.24H432.53C432.53 239.24 437.78 257.53 437.15 259.44C437.02 259.81 436.89 260.18 436.77 260.54C436.26 262.01 435.87 263.32 436.51 264.21C437.3 265.33 439.06 278.85 439.06 278.85L440.81 293.49C440.81 293.49 443.51 304.94 443.35 306.54C443.19 308.14 439.21 311.47 440.96 314.49C442.71 317.51 443.36 326.74 443.36 326.74C443.36 326.74 446.28 333.51 449.17 336.09C449.445 336.355 449.751 336.586 450.08 336.78Z" fill="#F26680"/>
<path opacity="0.1" d="M475 370.5C491.872 370.5 507.47 340.312 507.47 323.44C507.47 306.568 493.792 292.89 476.92 292.89C460.048 292.89 446.37 306.568 446.37 323.44C446.37 340.312 458.128 370.5 475 370.5Z" fill="black"/>
<path d="M471.772 361C486.96 361 501 338.825 501 322.165C501 305.505 488.688 292 473.5 292C458.312 292 446 305.505 446 322.165C446 338.825 456.584 361 471.772 361Z" fill="#FBBEBE"/>
<path d="M509.22 447.72C506.46 450.72 505.83 479.72 507.46 482.3C509.09 484.88 499.25 489.94 493.52 489.72C487.79 489.5 472.11 494.39 472.11 494.39C472.11 494.39 440.7 485.9 434.11 490.15C427.52 494.4 418.2 482.51 420.96 478.27C423.72 474.03 417.96 468.09 417.14 465.76C416.946 464.771 416.832 463.768 416.8 462.76C416.03 452.08 415.23 417.86 415.23 417.86V378.57L444.09 358.2C448.694 360.532 453.165 363.119 457.48 365.95C460.547 367.928 463.444 370.16 466.14 372.62C474 380.05 493.51 387.9 493.51 387.9C493.51 387.9 514.94 413.57 517.69 416.12C520.44 418.67 511.97 444.75 509.22 447.72Z" fill="white"/>
<path opacity="0.1" d="M415.24 417.81V384.03C415.24 384.03 416.12 445.56 416.81 462.71C416.04 452.03 415.24 417.81 415.24 417.81Z" fill="black"/>
<path opacity="0.1" d="M416.93 465.25C417.163 465.812 417.239 466.428 417.15 467.03C417.08 467.33 417 466.67 416.93 465.25Z" fill="black"/>
<path opacity="0.1" d="M457.67 376.87C455.806 378.792 454.25 380.991 453.06 383.39C451.47 386.89 415.24 384.03 415.24 384.03V378.57L444.1 358.2C448.704 360.532 453.175 363.119 457.49 365.95C457.67 371.93 457.67 376.87 457.67 376.87Z" fill="black"/>
<path opacity="0.1" d="M416.93 462.7C417.163 463.263 417.239 463.878 417.15 464.48C417.08 464.79 417 464.13 416.93 462.7Z" fill="black"/>
<path opacity="0.1" d="M450.08 336.78L444.31 349.39C444.31 349.39 435.71 354.49 435.08 354.96C434.45 355.43 427.6 363.24 427.6 363.24L410.73 374.06C410.73 374.06 410.32 373.29 409.73 372.2C414.32 366.63 419.01 360.7 421.73 358.62C427.14 354.49 421.57 354.01 421.73 353.21C421.89 352.41 433.67 348.12 436.85 345.1C439.44 342.63 446.64 337.82 449.19 336.1C449.46 336.36 449.758 336.588 450.08 336.78Z" fill="black"/>
<path d="M450.08 336.78C450.08 336.78 440.01 343.3 436.83 346.32C433.65 349.34 421.83 353.64 421.71 354.44C421.59 355.24 427.12 355.71 421.71 359.85C416.3 363.99 403.1 383.39 398.32 384.85C393.54 386.31 360.94 399.85 360.94 399.85C360.94 399.85 350.28 409.85 348.69 409.85C347.1 409.85 358.39 420.67 358.39 420.67C358.39 420.67 368.57 428.79 369.69 430.06C370.81 431.33 398.67 446.39 398.67 446.39C398.67 446.39 403.45 447.82 403.92 449.25C404.39 450.68 410.76 454.66 410.76 454.66C410.76 454.66 417.87 462.83 417.18 465.74C416.49 468.65 415.27 382.74 415.27 382.74C415.27 382.74 451.5 385.6 453.09 382.1C454.28 379.701 455.836 377.502 457.7 375.58C457.7 375.58 457.6 346.15 455.57 343.97C453.54 341.79 450.12 339.48 450.08 336.78Z" fill="#F26680"/>
<path opacity="0.1" d="M365.87 406.62C365.87 406.62 375.41 416.96 379.87 418.71C382.673 419.966 384.891 422.244 386.07 425.08C386.07 425.08 391.32 428.08 394.19 428.58C397.06 429.08 401.35 433.35 401.35 433.35C401.35 433.35 412.01 436.35 412.01 438.6C412.01 440.85 416.31 443.86 416.31 443.86L415.24 382.76C415.24 382.76 397.53 384.98 392.44 392.46C387.35 399.94 365.87 406.62 365.87 406.62Z" fill="black"/>
<path opacity="0.1" d="M386.67 412.39C387.47 411.91 409.19 383.93 409.19 383.93L413.19 383.11C413.19 383.11 402.88 398.55 403.04 399.82C403.2 401.09 386.67 412.39 386.67 412.39Z" fill="black"/>
<path opacity="0.1" d="M395.78 421.58C395.78 421.58 401.51 408.37 403.1 406.14C404.69 403.91 413.25 388.96 413.25 388.96C413.494 390.222 413.494 391.518 413.25 392.78C412.8 394.21 395.78 421.58 395.78 421.58Z" fill="black"/>
<path opacity="0.1" d="M434.12 323.09C434.12 323.09 421.39 346.32 422.51 347.44C423.63 348.56 434.12 323.09 434.12 323.09Z" fill="black"/>
<path opacity="0.1" d="M438.58 332.32C438.58 332.32 428.08 347.67 429.03 347.47C429.98 347.27 438.58 332.32 438.58 332.32Z" fill="black"/>
<path d="M429.03 244.66L408.98 246.09C408.98 246.09 408.98 245.44 408.91 244.32C408.63 237.7 407.62 214.62 407.08 212.04C406.44 209.04 405.8 203.61 405.8 203.61C405.8 203.61 401.528 193.848 402.5 187.5C404.068 177.256 409.84 167.63 420.5 168C428.82 168.25 424.261 181.683 424 190.5C423.927 192.981 423.703 195.862 423.5 198C423.219 200.952 422.247 202.131 422.3 203.4C422.425 206.032 422.355 208.669 422.09 211.29C421.88 213.56 421.97 216.16 422.99 217.98C424.47 220.63 426.66 231.62 427.99 238.65C428.61 242.12 429.03 244.66 429.03 244.66Z" fill="#FBBEBE"/>
<path opacity="0.1" d="M437.15 260.09L436.77 261.18C432.42 256.87 405.17 254.12 405.17 254.12C402.78 251.34 404.92 250.12 407.47 246.72C408.96 244.72 417.89 241.88 425.06 239.87H432.53C432.53 239.87 437.78 258.18 437.15 260.09Z" fill="black"/>
<path opacity="0.1" d="M429.03 244.66L408.98 246.09C408.98 246.09 408.98 245.44 408.91 244.32C412.06 242.47 419.15 240.25 425.06 238.6H427.96C428.61 242.12 429.03 244.66 429.03 244.66Z" fill="black"/>
<path d="M437.15 259.45C437.02 259.82 436.89 260.19 436.77 260.55C432.42 256.23 405.17 253.48 405.17 253.48C402.78 250.7 404.92 249.48 407.47 246.09C408.96 244.09 417.89 241.24 425.06 239.23H432.53C432.53 239.23 437.78 257.54 437.15 259.45Z" fill="#F26680"/>
<path opacity="0.1" d="M454.49 416.96C454.49 416.96 452.26 459.76 454.49 461.83C456.72 463.9 454.49 416.96 454.49 416.96Z" fill="black"/>
<path opacity="0.1" d="M470.24 434.94C470.24 434.94 469.44 482.04 470.24 482.51C471.04 482.98 470.24 434.94 470.24 434.94Z" fill="black"/>
<path opacity="0.1" d="M488.67 440.51C488.67 440.51 491.67 472.97 494.4 474.24C497.13 475.51 488.67 440.51 488.67 440.51Z" fill="black"/>
<path opacity="0.1" d="M535.95 479.19C535.04 479.038 534.171 478.697 533.4 478.19C530.7 476.44 527.67 457.66 523.7 455.12C519.73 452.58 505.4 427.59 505.4 427.59C505.4 427.59 499.83 417.59 497.6 415.02C495.37 412.45 496.49 401.02 496.49 401.02C496.49 401.02 490.56 394.19 488.05 388.45C487.431 387.167 487.058 385.78 486.95 384.36C486.95 384.36 487.8 381.85 491.19 384.36C494.58 386.87 502.85 397.52 505.08 398.31C507.31 399.1 510.01 400.7 513.36 404.52C516.71 408.34 518.29 408.98 518.29 408.98C518.29 408.98 522.11 418.68 521.95 421.07C521.79 423.46 523.22 439.68 524.95 441.12C526.68 442.56 529.56 455.59 529.56 455.59C529.56 455.59 534.84 473.96 535.95 479.19Z" fill="black"/>
<path opacity="0.1" d="M523.72 419.65C523.72 419.45 523.72 419.22 523.72 418.99C523.832 419.462 523.89 419.945 523.89 420.43C523.802 420.178 523.745 419.916 523.72 419.65Z" fill="black"/>
<path opacity="0.1" d="M536.83 474.32C536.18 475.45 535.57 476.48 535.05 477.32C532.42 474.61 529.46 456.93 525.61 454.47C524.257 453.339 523.078 452.014 522.11 450.54V429.54C522.897 428.197 523.566 426.788 524.11 425.33C524.58 431.01 525.66 439.43 526.9 440.45C528.65 441.88 531.51 454.93 531.51 454.93C531.51 454.93 534.93 466.97 536.83 474.32Z" fill="black"/>
<path d="M536.59 478.55C535.677 478.409 534.806 478.067 534.04 477.55C531.33 475.8 528.31 457.03 524.33 454.48C520.35 451.93 506.04 426.96 506.04 426.96C506.04 426.96 500.47 416.96 498.24 414.39C496.01 411.82 497.13 400.39 497.13 400.39C497.13 400.39 491.2 393.55 488.69 387.82C488.072 386.533 487.699 385.143 487.59 383.72C487.59 383.72 488.43 381.22 491.83 383.72C495.23 386.22 503.49 396.88 505.72 397.67C507.95 398.46 510.65 400.07 513.99 403.89C517.33 407.71 518.92 408.34 518.92 408.34C518.92 408.34 522.74 418.05 522.58 420.43C522.42 422.81 523.86 439.05 525.58 440.48C527.3 441.91 530.19 454.96 530.19 454.96C530.19 454.96 535.48 473.32 536.59 478.55Z" fill="#F26680"/>
<path d="M504.13 419.12C505.317 419.12 506.28 418.157 506.28 416.97C506.28 415.783 505.317 414.82 504.13 414.82C502.943 414.82 501.98 415.783 501.98 416.97C501.98 418.157 502.943 419.12 504.13 419.12Z" fill="#3F3D56"/>
<path d="M518.25 438.45C519.437 438.45 520.4 437.487 520.4 436.3C520.4 435.113 519.437 434.15 518.25 434.15C517.063 434.15 516.1 435.113 516.1 436.3C516.1 437.487 517.063 438.45 518.25 438.45Z" fill="#3F3D56"/>
<path opacity="0.1" d="M534.67 430.6C534.67 430.6 524.32 425.87 525.91 428.42C527.5 430.97 534.67 430.6 534.67 430.6Z" fill="black"/>
<path opacity="0.1" d="M534.67 437.49C534.67 437.49 524.16 434.63 526.39 436.3C528.62 437.97 534.67 437.49 534.67 437.49Z" fill="black"/>
<path opacity="0.1" d="M532.93 445.05C532.93 445.05 525.77 439.87 527.52 441.78C529.27 443.69 532.93 445.05 532.93 445.05Z" fill="black"/>
<path opacity="0.1" d="M540.4 450.53C540.4 450.53 533.1 464.89 536.59 465.83C540.08 466.77 540.4 450.53 540.4 450.53Z" fill="black"/>
<path opacity="0.1" d="M436.46 686.16C436.46 686.16 419.7 702.07 424.58 701.86C429.46 701.65 436.46 686.16 436.46 686.16Z" fill="black"/>
<path opacity="0.1" d="M412.91 708.23C413.76 708.23 430.73 706.53 426.27 705.68C421.81 704.83 412.91 708.23 412.91 708.23Z" fill="black"/>
<path opacity="0.1" d="M495.43 683.62C495.43 683.62 513.43 684.25 513.04 686.16C512.65 688.07 495.43 683.62 495.43 683.62Z" fill="black"/>
<path opacity="0.1" d="M492.46 690.83C492.46 690.83 502.85 698.68 505.19 696.13C507.53 693.58 492.46 690.83 492.46 690.83Z" fill="black"/>
<path d="M442.67 578.39C442.541 578.959 442.318 579.504 442.01 580C441.891 580.19 441.735 580.353 441.55 580.48C439.42 581.96 433.91 584.72 433.06 584.48C432.67 584.38 431.15 583.92 429.48 583.48C427.53 582.91 425.37 582.3 424.56 582.19C423.75 582.08 423.28 580.79 423.16 579.53C423.04 578.27 423.16 577.29 423.69 577.1C423.908 576.935 424.065 576.703 424.14 576.44C424.251 576.149 424.344 575.852 424.42 575.55L424.5 575.25C424.78 574.09 425.01 572.62 425.17 571.41C425.26 570.76 425.32 570.18 425.37 569.79C425.37 569.58 425.37 569.42 425.37 569.33V569.25L426.77 569.18H428.1C431.7 569.03 437.88 568.87 440.23 569.3C441.23 569.5 442 570.5 442.44 571.84C442.726 572.772 442.894 573.736 442.94 574.71C443.028 575.943 442.937 577.183 442.67 578.39Z" fill="#FBBEBE"/>
<path d="M515.32 585.78C515.315 585.85 515.315 585.92 515.32 585.99C515.32 588.16 515.17 589.8 515.17 590.07C515.17 590.91 493.11 596.86 487.6 596.43C483.98 596.15 486.67 593.67 488.69 591.11C489.39 590.316 489.932 589.396 490.29 588.4C490.391 588.044 490.391 587.666 490.29 587.31C490.18 586.91 490.08 586.55 490.01 586.22C489.49 583.93 489.75 583.22 490.29 582.66C490.616 582.252 490.863 581.788 491.02 581.29C491.186 580.833 491.29 580.355 491.33 579.87C491.461 578.781 491.172 577.683 490.52 576.8C488.82 574.54 496.89 573.33 496.89 573.33H512.22C513.72 573.33 514.52 575.45 514.92 578.19C514.915 578.22 514.915 578.25 514.92 578.28C515.03 579.08 515.12 579.93 515.17 580.8C515.22 581.67 515.26 582.44 515.27 583.24C515.28 584.04 515.32 584.97 515.32 585.78Z" fill="#FBBEBE"/>
<path d="M448.33 649.89C448.33 649.89 431.33 653.89 433.06 652.89C433.71 652.48 433.86 651.1 433.8 649.54C433.774 648.767 433.707 647.996 433.6 647.23C433.38 645.46 433.06 643.98 433.06 643.98C433.06 643.98 441.97 642.07 445.15 642.92C445.725 643.123 446.242 643.462 446.658 643.907C447.075 644.353 447.377 644.893 447.54 645.48C447.589 645.594 447.633 645.711 447.67 645.83C448.081 647.145 448.303 648.512 448.33 649.89Z" fill="#FBBEBE"/>
<path opacity="0.1" d="M461.23 313.71C463.56 312.92 465.61 311.5 467.85 310.48C470.09 309.46 472.7 308.84 474.97 309.78C476.126 310.329 477.181 311.069 478.09 311.97C480.09 313.74 482.09 315.51 483.97 317.4C485.788 319.461 487.846 321.297 490.1 322.87C495.35 326.08 502.02 325.36 508.1 324.4C509.331 324.267 510.531 323.929 511.65 323.4C514.32 321.94 515.35 318.4 514.72 315.45C514.09 312.5 512.18 309.93 510.15 307.66C504.321 301.142 497.218 295.887 489.28 292.22C480.86 288.35 470.84 286.42 462.44 290.31C459.886 291.553 457.528 293.164 455.44 295.09C452.52 297.69 444.97 304.3 446.64 308.77C448.48 313.8 456.88 315.17 461.23 313.71Z" fill="black"/>
<path d="M461.23 313.07C463.56 312.29 465.61 310.86 467.85 309.84C470.09 308.82 472.7 308.21 474.97 309.14C476.122 309.696 477.175 310.436 478.09 311.33C480.09 313.1 482.09 314.87 483.97 316.76C485.786 318.823 487.844 320.66 490.1 322.23C495.35 325.44 502.02 324.72 508.1 323.76C509.332 323.632 510.532 323.294 511.65 322.76C514.32 321.31 515.35 317.76 514.72 314.81C514.09 311.86 512.18 309.29 510.15 307.02C504.323 300.502 497.22 295.25 489.28 291.59C480.86 287.72 470.84 285.79 462.44 289.67C459.888 290.917 457.53 292.527 455.44 294.45C452.52 297.05 444.97 303.67 446.64 308.14C448.48 313.17 456.88 314.54 461.23 313.07Z" fill="#3F3D56"/>
<path opacity="0.1" d="M511.67 321.44C510.556 321.975 509.359 322.313 508.13 322.44C502.05 323.44 495.39 324.11 490.13 320.91C487.863 319.323 485.795 317.47 483.97 315.39C482.09 313.49 480.08 311.73 478.09 309.96C477.178 309.06 476.124 308.316 474.97 307.76C472.69 306.83 470.08 307.44 467.84 308.47C465.6 309.5 463.56 310.91 461.23 311.7C456.88 313.16 448.48 311.79 446.6 306.78C446.511 306.537 446.447 306.286 446.41 306.03C446.309 306.702 446.374 307.389 446.6 308.03C448.48 313.03 456.88 314.41 461.23 312.95C463.56 312.16 465.61 310.74 467.84 309.72C470.07 308.7 472.69 308.08 474.97 309.02C476.126 309.569 477.181 310.309 478.09 311.21C480.09 312.98 482.09 314.75 483.97 316.64C485.788 318.701 487.846 320.537 490.1 322.11C495.35 325.32 502.01 324.6 508.1 323.64C509.328 323.508 510.524 323.17 511.64 322.64C514 321.36 515.07 318.48 514.87 315.78C514.859 316.917 514.56 318.033 514 319.023C513.44 320.013 512.639 320.844 511.67 321.44Z" fill="black"/>
<path opacity="0.1" d="M425.53 569.89C425.294 571.81 424.923 573.712 424.42 575.58C424.871 573.682 425.205 571.759 425.42 569.82L425.53 569.89Z" fill="black"/>
<path opacity="0.1" d="M441.55 580.52C439.42 582 433.91 584.76 433.06 584.52C432.21 584.28 426.06 582.4 424.56 582.19C423.06 581.98 422.67 577.52 423.69 577.1C423.908 576.935 424.066 576.703 424.14 576.44C424.037 576.743 423.916 577.04 423.78 577.33C422.62 579.83 424.78 582 424.78 582L433.6 584.28L441.91 579.74C443.91 576.99 441.67 570.65 440.53 569.62C439.39 568.59 425.76 569.62 425.76 569.62L425.46 569.33V569.25L426.86 569.18H428.19C431.79 569.03 437.97 568.87 440.32 569.3C443.67 569.91 443.67 579.04 441.55 580.52Z" fill="black"/>
<path opacity="0.1" d="M512.25 573.31H496.92C496.92 573.31 488.85 574.52 490.55 576.78C492.25 579.04 490.93 582 490.32 582.64C489.71 583.28 489.45 584.13 490.32 587.31C491.19 590.49 482.08 596.01 487.59 596.43C493.1 596.85 515.16 590.91 515.16 590.07C515.16 589.23 516.35 573.31 512.25 573.31ZM514.32 589.77C514.32 590.57 493.53 596.16 488.32 595.77C483.11 595.38 491.71 590.18 490.89 587.18C490.07 584.18 490.31 583.38 490.89 582.78C491.47 582.18 492.71 579.38 491.11 577.25C489.51 575.12 497.11 573.98 497.11 573.98H511.56C515.44 573.97 514.32 588.97 514.32 589.77Z" fill="black"/>
<path opacity="0.1" d="M445.15 642.89C441.97 642.04 433.06 643.95 433.06 643.95C433.06 643.95 434.76 651.8 433.06 652.86C431.36 653.92 448.34 649.86 448.34 649.86C448.34 649.86 448.34 643.74 445.15 642.89ZM433.32 652.69C434.96 651.69 433.32 644.08 433.32 644.08C433.32 644.08 441.93 642.24 445 643.08C448.07 643.92 448.07 649.84 448.07 649.84C448.07 649.84 431.67 653.71 433.32 652.69Z" fill="black"/>
<path opacity="0.1" d="M515.31 583.22L490.04 586.22L515.21 580.8C515.26 581.59 515.3 582.39 515.31 583.22Z" fill="black"/>
<path d="M489.81 585.62L516.06 579.97L516.62 582.43L489.81 585.62Z" fill="#36435E"/>
<path opacity="0.1" d="M515.32 585.78C515.315 585.85 515.315 585.92 515.32 585.99L488.67 591.11C489.37 590.316 489.912 589.396 490.27 588.4L515.32 585.78Z" fill="black"/>
<path d="M485.81 588.24L517.81 584.88L486.66 590.87L485.81 588.24Z" fill="#36435E"/>
<path opacity="0.1" d="M514.95 578.17L491.36 579.85C491.32 580.335 491.216 580.813 491.05 581.27L514.96 578.27L514.95 578.17Z" fill="black"/>
<path d="M489.81 579.33L516.62 577.42L489.41 580.84L489.81 579.33Z" fill="#36435E"/>
<path opacity="0.1" d="M442.99 574.68L424.5 575.28C424.78 574.12 425.01 572.65 425.17 571.44L442.49 571.81C442.776 572.742 442.944 573.706 442.99 574.68Z" fill="black"/>
<path d="M423.12 570.76L448.34 571.29L445.26 573.98L423.12 574.69V570.76Z" fill="#36435E"/>
<path opacity="0.1" d="M442.67 578.39C442.541 578.959 442.318 579.504 442.01 580L429.48 583.47C427.53 582.9 425.37 582.29 424.56 582.18C423.75 582.07 423.28 580.78 423.16 579.52L442.67 578.39Z" fill="black"/>
<path d="M419.81 579.13L449.19 577.42L422.25 584.88L419.81 579.13Z" fill="#36435E"/>
<path opacity="0.1" d="M447.67 645.8L433.8 649.51C433.773 648.737 433.707 647.966 433.6 647.2C437.47 646.68 443.92 645.89 447.54 645.45C447.589 645.564 447.633 645.681 447.67 645.8Z" fill="black"/>
<path d="M430.41 647.02C430.94 646.81 450.25 644.48 450.25 644.48L430.41 649.78V647.02Z" fill="#36435E"/>
<path d="M678.5 170C687.613 170 695 162.613 695 153.5C695 144.387 687.613 137 678.5 137C669.387 137 662 144.387 662 153.5C662 162.613 669.387 170 678.5 170Z" fill="#F2A7A7"/>
<path d="M753 208C760.18 208 766 202.18 766 195C766 187.82 760.18 182 753 182C745.82 182 740 187.82 740 195C740 202.18 745.82 208 753 208Z" fill="#F2A7A7"/>
<path d="M206 237C229.196 237 248 218.196 248 195C248 171.804 229.196 153 206 153C182.804 153 164 171.804 164 195C164 218.196 182.804 237 206 237Z" fill="#F2A7A7"/>
<path d="M749 141C751.761 141 754 138.761 754 136C754 133.239 751.761 131 749 131C746.239 131 744 133.239 744 136C744 138.761 746.239 141 749 141Z" fill="#F2A7A7"/>
</g>
<defs>
<linearGradient id="paint0_linear" x1="454.81" y1="841.3" x2="454.81" y2="176.94" gradientUnits="userSpaceOnUse">
<stop stop-color="#808080" stop-opacity="0.25"/>
<stop offset="0.54" stop-color="#808080" stop-opacity="0.12"/>
<stop offset="1" stop-color="#808080" stop-opacity="0.1"/>
</linearGradient>
<linearGradient id="paint1_linear" x1="560.256" y1="1378.89" x2="560.256" y2="1375.4" gradientUnits="userSpaceOnUse">
<stop stop-color="#808080" stop-opacity="0.25"/>
<stop offset="0.54" stop-color="#808080" stop-opacity="0.12"/>
<stop offset="1" stop-color="#808080" stop-opacity="0.1"/>
</linearGradient>
<clipPath id="clip0">
<rect width="915.35" height="848.79" fill="white"/>
</clipPath>
</defs>
</svg>
